<svg width="17" height="19" viewBox="0 0 17 19" fill="none" xmlns="http://www.w3.org/2000/svg">
<path d="M8.66671 11.8768V13.6185C7.91248 13.3518 7.10527 13.27 6.31288 13.38C5.52048 13.4899 4.76604 13.7884 4.1129 14.2503C3.45976 14.7123 2.92699 15.3242 2.55934 16.0347C2.19169 16.7452 1.99989 17.5335 2.00004 18.3335L0.333374 18.3327C0.333116 17.3151 0.565808 16.3109 1.01362 15.3972C1.46144 14.4834 2.11249 13.6843 2.91689 13.061C3.72129 12.4378 4.65769 12.0069 5.65434 11.8015C6.65098 11.5961 7.68143 11.6216 8.66671 11.876V11.8768ZM7.00004 10.8335C4.23754 10.8335 2.00004 8.596 2.00004 5.8335C2.00004 3.071 4.23754 0.833496 7.00004 0.833496C9.76254 0.833496 12 3.071 12 5.8335C12 8.596 9.76254 10.8335 7.00004 10.8335ZM7.00004 9.16683C8.84171 9.16683 10.3334 7.67516 10.3334 5.8335C10.3334 3.99183 8.84171 2.50016 7.00004 2.50016C5.15837 2.50016 3.66671 3.99183 3.66671 5.8335C3.66671 7.67516 5.15837 9.16683 7.00004 9.16683ZM12 14.1668V11.6668H13.6667V14.1668H16.1667V15.8335H13.6667V18.3335H12V15.8335H9.50004V14.1668H12Z" fill="#16113D"/>
</svg>
