<svg width="12" height="10" viewBox="0 0 12 10" fill="none" xmlns="http://www.w3.org/2000/svg">
<path d="M7.5 3.09235e-06C7.85114 -3.86887e-05 8.19611 0.0923691 8.50021 0.267935C8.80431 0.443501 9.05683 0.696037 9.23237 1.00015C9.40792 1.30426 9.5003 1.64923 9.50024 2.00038C9.50017 2.35152 9.40766 2.69646 9.232 3.0005L11.5 3V4H10.5V9C10.5 9.13261 10.4473 9.25979 10.3536 9.35356C10.2598 9.44732 10.1326 9.5 10 9.5H2C1.86739 9.5 1.74021 9.44732 1.64645 9.35356C1.55268 9.25979 1.5 9.13261 1.5 9V4H0.5V3L2.768 3.0005C2.51993 2.57095 2.44034 2.06453 2.54469 1.57959C2.64904 1.09465 2.92987 0.665787 3.33267 0.376279C3.73546 0.0867716 4.23147 -0.0427221 4.72437 0.0129424C5.21728 0.0686069 5.67192 0.305457 6 0.677503C6.1873 0.464194 6.41803 0.29339 6.67673 0.176542C6.93544 0.0596943 7.21613 -0.000497124 7.5 3.09235e-06ZM5.5 4H2.5V8.5H5.5V4ZM9.5 4H6.5V8.5H9.5V4ZM4.5 1C4.24051 0.998842 3.99073 1.0986 3.80342 1.27819C3.61612 1.45779 3.50597 1.70316 3.49623 1.96247C3.48649 2.22178 3.57794 2.47473 3.75125 2.66786C3.92455 2.861 4.16615 2.9792 4.425 2.9975L4.5 3H5.5V2C5.50001 1.76103 5.41444 1.52996 5.2588 1.34863C5.10315 1.1673 4.88771 1.04771 4.6515 1.0115L4.5745 1.0025L4.5 1ZM7.5 1C7.24771 0.999923 7.00472 1.09521 6.81973 1.26675C6.63474 1.4383 6.52142 1.67343 6.5025 1.925L6.5 2V3H7.5C7.75229 3.00008 7.99528 2.9048 8.18027 2.73325C8.36526 2.56171 8.47858 2.32658 8.4975 2.075L8.5 2C8.5 1.73479 8.39464 1.48043 8.20711 1.2929C8.01957 1.10536 7.76522 1 7.5 1Z" fill="white"/>
</svg>
