<svg width="18" height="18" viewBox="0 0 18 18" fill="none" xmlns="http://www.w3.org/2000/svg">
<path d="M3.47752 2.75818C4.99977 1.40766 6.96504 0.663308 9.00002 0.666514C13.6025 0.666514 17.3334 4.39735 17.3334 8.99985C17.3361 10.7031 16.8144 12.3659 15.8392 13.7623L13.5834 8.99985H15.6667C15.6667 7.67431 15.2716 6.37886 14.5318 5.27897C13.792 4.17909 12.7411 3.32471 11.5134 2.82498C10.2856 2.32525 8.93682 2.20285 7.63919 2.47343C6.34156 2.744 5.15405 3.39526 4.22835 4.34401L3.47835 2.75901L3.47752 2.75818ZM14.5225 15.2415C13.0003 16.592 11.035 17.3364 9.00002 17.3332C4.39752 17.3332 0.666687 13.6023 0.666687 8.99985C0.666687 7.22901 1.21919 5.58735 2.16085 4.23735L4.41669 8.99985H2.33335C2.33333 10.3254 2.72845 11.6208 3.46825 12.7207C4.20805 13.8206 5.25894 14.675 6.48667 15.1747C7.71439 15.6744 9.06322 15.7968 10.3609 15.5263C11.6585 15.2557 12.846 14.6044 13.7717 13.6557L14.5217 15.2407L14.5225 15.2415ZM10.1784 11.3565L7.82169 8.99985L5.46419 11.3565L4.28585 10.1782L7.82169 6.64318L10.1784 8.99985L12.5359 6.64318L13.7142 7.82151L10.1784 11.3565Z" fill="white"/>
</svg>
