<svg width="10" height="10" viewBox="0 0 10 10" fill="none" xmlns="http://www.w3.org/2000/svg">
<path d="M9.5 3V9.4965C9.50046 9.56216 9.48798 9.62727 9.46328 9.68811C9.43858 9.74895 9.40214 9.80433 9.35603 9.85108C9.30993 9.89784 9.25506 9.93505 9.19458 9.9606C9.13409 9.98616 9.06916 9.99954 9.0035 10H0.9965C0.864907 10 0.738696 9.94776 0.645598 9.85476C0.552501 9.76175 0.500133 9.63559 0.5 9.504V0.496C0.5 0.2275 0.7245 0 1.001 0H6.4985L9.5 3ZM8.5 3.5H6V1H1.5V9H8.5V3.5ZM3 2.5H4.5V3.5H3V2.5ZM3 4.5H7V5.5H3V4.5ZM3 6.5H7V7.5H3V6.5Z" fill="white"/>
</svg>
