<svg width="20" height="17" viewBox="0 0 20 17" fill="none" xmlns="http://www.w3.org/2000/svg">
<path d="M0.833314 11.0835C0.832801 10.1631 1.067 9.25771 1.51377 8.45296C1.96055 7.64821 2.60515 6.97067 3.38665 6.48438C3.59291 4.87612 4.37815 3.39813 5.59541 2.32701C6.81268 1.25589 8.37855 0.665039 9.99998 0.665039C11.6214 0.665039 13.1873 1.25589 14.4045 2.32701C15.6218 3.39813 16.4071 4.87612 16.6133 6.48438C17.5827 7.08745 18.3367 7.98138 18.7677 9.03853C19.1988 10.0957 19.2848 11.262 19.0134 12.3709C18.7421 13.4798 18.1274 14.4747 17.2569 15.2134C16.3865 15.9522 15.3049 16.397 14.1666 16.4844L5.83331 16.5002C3.03665 16.2719 0.833314 13.9352 0.833314 11.0835ZM14.04 14.8227C14.8282 14.7621 15.5771 14.454 16.1797 13.9423C16.7823 13.4307 17.2077 12.7417 17.3954 11.9737C17.583 11.2058 17.5231 10.3982 17.2243 9.66636C16.9255 8.93449 16.4031 8.31576 15.7316 7.89854L15.0591 7.47938L14.9591 6.69438C14.8034 5.48912 14.214 4.38182 13.3013 3.57945C12.3885 2.77708 11.2148 2.33453 9.99956 2.33453C8.78428 2.33453 7.61058 2.77708 6.69783 3.57945C5.78508 4.38182 5.19575 5.48912 5.03998 6.69438L4.93998 7.47938L4.26915 7.89854C3.59773 8.31571 3.0753 8.93437 2.77648 9.66617C2.47765 10.398 2.41772 11.2055 2.60524 11.9734C2.79275 12.7413 3.21813 13.4303 3.82061 13.942C4.42308 14.4537 5.17186 14.762 5.95998 14.8227L6.10415 14.8335H13.8958L14.04 14.8227ZM10.8333 9.00021H13.3333L9.99998 13.1669L6.66665 9.00021H9.16665V5.66688H10.8333V9.00021Z" fill="#16113D"/>
</svg>
