<svg width="18" height="18" viewBox="0 0 18 18" fill="none" xmlns="http://www.w3.org/2000/svg">
<g clip-path="url(#clip0_1373_1306)">
<path d="M7.4375 5.2915V6.17171H17.3242C17.3104 5.88786 17.2807 5.529 17.1745 5.2915" fill="#EC1C24"/>
<path d="M16.7083 4.41113H7.4375V5.29134H17.1745C17.0687 4.96296 16.9115 4.66348 16.7083 4.41113Z" fill="#E6E7E8"/>
<path d="M14.7292 3.53125H7.4375V4.41146H16.7083C16.2737 3.86719 15.5583 3.53125 14.7292 3.53125Z" fill="#EC1C24"/>
<path d="M17.3242 6.17139H7.4375V7.0516H17.3333V6.46488C17.3333 6.41253 17.3299 6.36149 17.3284 6.31019C17.3273 6.29613 17.3258 6.25993 17.3242 6.17139Z" fill="#E6E7E8"/>
<path d="M7.4375 7.93197H17.3333V7.05176H7.4375V7.93197Z" fill="#EC1C24"/>
<path d="M7.4375 8.81234H17.3333V7.93213H7.4375V8.81234Z" fill="#E6E7E8"/>
<path d="M7.4375 8.81201H17.3333V9.69222H7.4375V8.81201Z" fill="#EC1C24"/>
<path d="M0.66703 9.69238V10.5726H17.3337V9.69238H7.43786H0.66703Z" fill="#E6E7E8"/>
<path d="M0.66703 10.5728H17.3337V11.453H0.66703V10.5728Z" fill="#EC1C24"/>
<path d="M0.668332 11.994C0.668332 11.994 0.665989 12.2073 0.672239 12.3328H17.3285C17.3358 12.2042 17.3324 11.994 17.3324 11.994L17.3337 11.4526H0.66703L0.668332 11.994Z" fill="#E6E7E8"/>
<path d="M3.27083 14.9891H14.7292C15.5607 14.9891 16.2518 14.687 16.724 14.0933H1.27344C1.76094 14.7 2.4651 14.9891 3.26953 14.9891" fill="#EC1C24"/>
<path d="M1.27474 14.0936H16.7253C16.9312 13.8319 17.0851 13.5331 17.1784 13.2134H0.824219C0.919296 13.5321 1.07248 13.8305 1.27604 14.0936" fill="#E6E7E8"/>
<path d="M0.822917 13.2132H17.1771C17.2624 12.9269 17.3131 12.6314 17.3281 12.333H0.671875C0.697656 12.634 0.721615 12.8614 0.822917 13.2132Z" fill="#EC1C24"/>
<path d="M7.43783 3.53125H3.27116C1.54538 3.53125 0.666992 4.8138 0.666992 6.39583V9.69271H7.43783V3.53125Z" fill="#176496"/>
<path d="M1.39569 5.08721L1.53736 4.97835L1.67877 5.08721L1.62382 4.91221L1.7647 4.80518H1.59074L1.53684 4.62939L1.48319 4.80518H1.30949L1.4509 4.91221L1.39569 5.08721ZM2.33163 5.08721L2.4733 4.97835L2.6147 5.08721L2.56002 4.91221L2.70064 4.80518H2.52694L2.47304 4.62939L2.41939 4.80518H2.24517L2.38658 4.91221L2.33163 5.08721ZM3.36418 5.08721L3.50559 4.97835L3.64725 5.08721L3.59231 4.91221L3.73293 4.80518H3.56028L3.50559 4.62939L3.45168 4.80518H3.27903L3.41887 4.91221L3.36418 5.08721ZM4.38918 5.08721L4.53059 4.97835L4.67225 5.08721L4.61757 4.91221L4.75819 4.80518H4.58371L4.53059 4.62939L4.47694 4.80518H4.30298L4.44413 4.91221L4.38918 5.08721ZM5.41783 5.08721L5.55949 4.97835L5.7009 5.08721L5.64621 4.91221L5.7871 4.80518H5.61288L5.55923 4.62939L5.50559 4.80518H5.33189L5.47252 4.91221L5.41783 5.08721ZM1.89387 5.54424L2.03528 5.43564L2.17668 5.54424L2.12225 5.3695L2.26288 5.26247H2.08892L2.03502 5.08695L1.98215 5.26247H1.80767L1.94856 5.3695L1.89387 5.54424ZM2.83007 5.54424L2.97147 5.43564L3.11288 5.54424L3.05819 5.3695L3.19882 5.26247H3.02382L2.97147 5.08695L2.91757 5.26247H2.74387L2.88475 5.3695L2.83007 5.54424ZM3.86262 5.54424L4.00377 5.43564L4.14517 5.54424L4.09048 5.3695L4.23137 5.26247H4.05767L4.00377 5.08695L3.94986 5.26247H3.7759L3.91679 5.3695L3.86262 5.54424ZM4.8871 5.54424L5.02877 5.43564L5.17043 5.54424L5.11496 5.3695L5.25611 5.26247H5.08241L5.0285 5.08695L4.97512 5.26247H4.80116L4.94205 5.3695L4.8871 5.54424ZM5.91705 5.54424L6.05741 5.43564L6.19882 5.54424L6.14361 5.3695L6.28476 5.26247H6.11132L6.05715 5.08695L6.00377 5.26247H5.82981L5.97069 5.3695L5.91705 5.54424ZM6.49699 5.08721L6.6384 4.97835L6.78007 5.08721L6.72512 4.91221L6.86574 4.80518H6.69309L6.63814 4.62939L6.58449 4.80518H6.40923L6.55168 4.91221L6.49699 5.08721ZM1.38189 8.7445L1.52356 8.63695L1.66496 8.7445L1.61028 8.57106L1.7509 8.46377L1.5772 8.46429L1.52304 8.28877L1.46991 8.46429L1.29569 8.46377L1.43658 8.57106L1.38189 8.7445ZM2.31809 8.7445L2.45949 8.63695L2.60116 8.7445L2.54621 8.57106L2.68684 8.46377L2.5134 8.46429L2.45923 8.28877L2.40585 8.46429L2.23215 8.46377L2.37278 8.57106L2.31809 8.7445ZM3.35064 8.7445L3.49205 8.63695L3.63371 8.7445L3.57877 8.57106L3.71939 8.46377L3.54465 8.46429L3.49179 8.28877L3.43814 8.46429L3.26444 8.46377L3.40533 8.57106L3.35064 8.7445ZM4.37564 8.7445L4.51705 8.63695L4.65845 8.7445L4.60455 8.57106L4.74439 8.46377L4.57043 8.46429L4.51679 8.28877L4.46314 8.46429L4.28944 8.46377L4.43007 8.57106L4.37564 8.7445ZM5.40403 8.7445L5.54569 8.63695L5.68736 8.7445L5.63319 8.57106L5.77304 8.46377L5.59934 8.46429L5.54543 8.28877L5.49205 8.46429L5.31809 8.46377L5.45871 8.57106L5.40403 8.7445ZM6.48319 8.7445L6.6246 8.63695L6.76626 8.7445L6.71132 8.57106L6.8522 8.46377L6.67746 8.46429L6.62434 8.28877L6.57069 8.46429L6.39621 8.46377L6.53788 8.57106L6.48319 8.7445ZM1.39569 6.00179L1.53736 5.89294L1.67877 6.00179L1.62382 5.82679L1.7647 5.71976L1.59074 5.72028L1.53684 5.54424L1.48319 5.72028L1.30949 5.71976L1.4509 5.82679L1.39569 6.00179ZM2.33163 6.00179L2.4733 5.89294L2.6147 6.00179L2.56002 5.82679L2.70064 5.71976L2.52694 5.72028L2.47304 5.54424L2.41939 5.72028L2.24517 5.71976L2.38658 5.82679L2.33163 6.00179ZM3.36418 6.00179L3.50559 5.89294L3.64725 6.00179L3.59231 5.82679L3.73293 5.71976L3.56028 5.72028L3.50559 5.54424L3.45168 5.72028L3.27903 5.71976L3.41887 5.82679L3.36418 6.00179ZM4.38918 6.00179L4.53059 5.89294L4.67225 6.00179L4.61757 5.82679L4.75819 5.71976L4.58371 5.72028L4.53059 5.54424L4.47694 5.72028L4.30298 5.71976L4.44413 5.82679L4.38918 6.00179ZM5.41783 6.00179L5.55949 5.89294L5.7009 6.00179L5.64621 5.82679L5.7871 5.71976L5.61288 5.72028L5.55923 5.54424L5.50559 5.72028L5.33189 5.71976L5.47252 5.82679L5.41783 6.00179ZM1.89387 6.45908L2.03528 6.35049L2.17668 6.45908L2.12225 6.28434L2.26288 6.17679H2.08892L2.03502 6.00179L1.98215 6.17679H1.80767L1.94856 6.28434L1.89387 6.45908ZM2.83007 6.45908L2.97147 6.35049L3.11288 6.45908L3.05819 6.28434L3.19882 6.17679H3.02382L2.97147 6.00179L2.91757 6.17679H2.74387L2.88475 6.28434L2.83007 6.45908ZM3.86262 6.45908L4.00377 6.35049L4.14517 6.45908L4.09048 6.28434L4.23137 6.17679H4.05767L4.00377 6.00179L3.94986 6.17679H3.7759L3.91679 6.28434L3.86262 6.45908ZM4.8871 6.45908L5.02877 6.35049L5.17043 6.45908L5.11496 6.28434L5.25611 6.17679H5.08241L5.0285 6.00179L4.97512 6.17679H4.80116L4.94205 6.28434L4.8871 6.45908ZM5.91705 6.45908L6.05741 6.35049L6.19882 6.45908L6.14361 6.28434L6.28476 6.17679H6.11132L6.05715 6.00179L6.00377 6.17679H5.82981L5.97069 6.28434L5.91705 6.45908ZM6.49699 6.00179L6.6384 5.89294L6.78007 6.00179L6.72512 5.82679L6.86574 5.71976L6.69309 5.72028L6.63814 5.54424L6.58449 5.72028L6.40923 5.71976L6.55168 5.82679L6.49699 6.00179ZM1.38189 6.91637L1.52356 6.80778L1.66496 6.91637L1.61002 6.74189L1.7509 6.6346L1.57694 6.63512L1.52304 6.45908L1.46991 6.63512L1.29569 6.6346L1.43658 6.74189L1.38189 6.91637ZM2.31809 6.91637L2.45949 6.80778L2.60116 6.91637L2.54621 6.74189L2.68684 6.6346L2.5134 6.63512L2.45923 6.45908L2.40585 6.63512L2.23215 6.6346L2.37252 6.74189L2.31809 6.91637ZM3.35064 6.91637L3.49205 6.80778L3.63345 6.91637L3.57877 6.74189L3.71939 6.6346L3.54465 6.63512L3.49179 6.45908L3.43814 6.63512L3.26444 6.6346L3.40533 6.74189L3.35064 6.91637ZM4.37564 6.91637L4.51679 6.80778L4.65845 6.91637L4.60455 6.74189L4.74439 6.6346L4.57043 6.63512L4.51679 6.45908L4.46314 6.63512L4.28944 6.6346L4.43007 6.74189L4.37564 6.91637ZM5.40403 6.91637L5.54569 6.80778L5.6871 6.91637L5.63319 6.74189L5.77304 6.6346L5.59908 6.63512L5.54543 6.45908L5.49205 6.63512L5.31809 6.6346L5.45871 6.74189L5.40403 6.91637ZM1.88007 7.37367L2.02147 7.26533L2.16288 7.37367L2.10845 7.20023L2.24882 7.09242H2.07486L2.02121 6.91637L1.96783 7.09242H1.79387L1.93475 7.20023L1.88007 7.37367ZM2.81627 7.37367L2.95767 7.26533L3.09908 7.37367L3.04439 7.20023L3.18502 7.09242H3.0108L2.95741 6.91637L2.90377 7.09242H2.72981L2.87095 7.20023L2.81627 7.37367ZM3.84908 7.37367L3.98996 7.26533L4.13163 7.37367L4.0759 7.20023L4.21757 7.09242H4.04387L3.98996 6.91637L3.93632 7.09242H3.76236L3.90324 7.20023L3.84908 7.37367ZM4.87278 7.37367L5.01496 7.26533L5.15663 7.37367L5.10194 7.20023L5.24231 7.09242H5.06861L5.0147 6.91637L4.96132 7.09242H4.78736L4.92824 7.20023L4.87278 7.37367ZM5.90142 7.37367L6.04361 7.26533L6.18528 7.37367L6.13033 7.20023L6.27147 7.09242H6.09778L6.04361 6.91637L5.98996 7.09242H5.816L5.95689 7.20023L5.90142 7.37367ZM6.48319 6.91637L6.6246 6.80778L6.76601 6.91637L6.71132 6.74189L6.8522 6.6346L6.67746 6.63512L6.62434 6.45908L6.57069 6.63512L6.39621 6.6346L6.53788 6.74189L6.48319 6.91637ZM1.38189 7.83122L1.52356 7.72367L1.66496 7.83122L1.61002 7.65648L1.7509 7.54919L1.57694 7.54971L1.52304 7.37367L1.46991 7.54971L1.29569 7.54919L1.43658 7.65648L1.38189 7.83122ZM2.31809 7.83122L2.45949 7.72367L2.60116 7.83122L2.54621 7.65648L2.68684 7.54919L2.5134 7.54971L2.45923 7.37367L2.40585 7.54971L2.23215 7.54919L2.37252 7.65648L2.31809 7.83122ZM3.35064 7.83122L3.49205 7.72367L3.63345 7.83122L3.57877 7.65648L3.71939 7.54919L3.54465 7.54971L3.49179 7.37367L3.43814 7.54971L3.26444 7.54919L3.40533 7.65648L3.35064 7.83122ZM4.37564 7.83122L4.51679 7.72367L4.65845 7.83122L4.60455 7.65648L4.74439 7.54919L4.57043 7.54971L4.51679 7.37367L4.46314 7.54971L4.28944 7.54919L4.43007 7.65648L4.37564 7.83122ZM5.40403 7.83122L5.54569 7.72367L5.6871 7.83122L5.63319 7.65648L5.77304 7.54919L5.59908 7.54971L5.54543 7.37367L5.49205 7.54971L5.31809 7.54919L5.45871 7.65648L5.40403 7.83122ZM1.88007 8.28877L2.02147 8.17991L2.16288 8.28877L2.10845 8.11377L2.24882 8.00752H2.07486L2.02121 7.83122L1.96783 8.00752H1.79387L1.93475 8.11377L1.88007 8.28877ZM2.81627 8.28877L2.95767 8.17991L3.09908 8.28877L3.04439 8.11377L3.18502 8.00752H3.0108L2.95741 7.83122L2.90377 8.00752H2.72981L2.87095 8.11377L2.81627 8.28877ZM3.84908 8.28877L3.98996 8.17991L4.13163 8.28877L4.0759 8.11377L4.21757 8.00752H4.04387L3.98996 7.83122L3.93632 8.00752H3.76236L3.90324 8.11377L3.84908 8.28877ZM4.87278 8.28877L5.01496 8.17991L5.15663 8.28877L5.10194 8.11377L5.24231 8.00752H5.06861L5.0147 7.83122L4.96132 8.00752H4.78736L4.92824 8.11377L4.87278 8.28877ZM5.90142 8.28877L6.04361 8.17991L6.18528 8.28877L6.13033 8.11377L6.27147 8.00752H6.09778L6.04361 7.83122L5.98996 8.00752H5.816L5.95689 8.11377L5.90142 8.28877ZM6.48319 7.83122L6.6246 7.72367L6.76601 7.83122L6.71132 7.65648L6.8522 7.54919L6.67746 7.54971L6.62434 7.37367L6.57069 7.54971L6.39621 7.54919L6.53788 7.65648L6.48319 7.83122Z" fill="white"/>
</g>
<defs>
<clipPath id="clip0_1373_1306">
<rect width="16.6667" height="16.6667" fill="white" transform="translate(0.666992 0.666504)"/>
</clipPath>
</defs>
</svg>
