<svg width="20" height="17" viewBox="0 0 20 17" fill="none" xmlns="http://www.w3.org/2000/svg">
<path d="M4.16671 6.49984C4.38772 6.49984 4.59968 6.58763 4.75596 6.74392C4.91224 6.9002 5.00004 7.11216 5.00004 7.33317C6.30933 7.33124 7.58086 7.77173 8.60837 8.58317H10.4167C11.5275 8.58317 12.525 9.0665 13.2117 9.83317H15.8334C16.6211 9.83295 17.3927 10.056 18.0588 10.4765C18.7249 10.897 19.2581 11.4978 19.5967 12.209C17.6259 14.8098 14.435 16.4998 10.8334 16.4998C8.50837 16.4998 6.54171 15.9973 4.95004 15.1182C4.89174 15.2791 4.78524 15.418 4.64505 15.5162C4.50487 15.6143 4.33783 15.6668 4.16671 15.6665H1.66671C1.44569 15.6665 1.23373 15.5787 1.07745 15.4224C0.921171 15.2661 0.833374 15.0542 0.833374 14.8332V7.33317C0.833374 7.11216 0.921171 6.9002 1.07745 6.74392C1.23373 6.58763 1.44569 6.49984 1.66671 6.49984H4.16671ZM5.00087 8.99984L5.00004 13.1848L5.03754 13.2115C6.53337 14.2615 8.48171 14.8332 10.8334 14.8332C13.3367 14.8332 15.6659 13.8698 17.3625 12.2248L17.4734 12.114L17.3734 12.0307C16.9799 11.7225 16.5029 11.5396 16.0042 11.5057L15.8334 11.4998H14.0742C14.1342 11.7682 14.1667 12.0465 14.1667 12.3332V13.1665H6.66671V11.4998L12.325 11.499L12.2967 11.434C12.137 11.1003 11.8913 10.8151 11.585 10.6077C11.2786 10.4003 10.9225 10.2783 10.5534 10.254L10.4167 10.2498H7.97504C7.5878 9.85378 7.12527 9.53916 6.61464 9.32449C6.10402 9.10982 5.55562 8.99944 5.00171 8.99984H5.00087ZM3.33337 8.1665H2.50004V13.9998H3.33337V8.1665ZM15 3.1665C15.6631 3.1665 16.299 3.4299 16.7678 3.89874C17.2367 4.36758 17.5 5.00346 17.5 5.6665C17.5 6.32955 17.2367 6.96543 16.7678 7.43427C16.299 7.90311 15.6631 8.1665 15 8.1665C14.337 8.1665 13.7011 7.90311 13.2323 7.43427C12.7634 6.96543 12.5 6.32955 12.5 5.6665C12.5 5.00346 12.7634 4.36758 13.2323 3.89874C13.7011 3.4299 14.337 3.1665 15 3.1665ZM15 4.83317C14.779 4.83317 14.5671 4.92097 14.4108 5.07725C14.2545 5.23353 14.1667 5.44549 14.1667 5.6665C14.1667 5.88752 14.2545 6.09948 14.4108 6.25576C14.5671 6.41204 14.779 6.49984 15 6.49984C15.2211 6.49984 15.433 6.41204 15.5893 6.25576C15.7456 6.09948 15.8334 5.88752 15.8334 5.6665C15.8334 5.44549 15.7456 5.23353 15.5893 5.07725C15.433 4.92097 15.2211 4.83317 15 4.83317ZM9.16671 0.666504C9.82975 0.666504 10.4656 0.929896 10.9345 1.39874C11.4033 1.86758 11.6667 2.50346 11.6667 3.1665C11.6667 3.82955 11.4033 4.46543 10.9345 4.93427C10.4656 5.40311 9.82975 5.6665 9.16671 5.6665C8.50367 5.6665 7.86778 5.40311 7.39894 4.93427C6.9301 4.46543 6.66671 3.82955 6.66671 3.1665C6.66671 2.50346 6.9301 1.86758 7.39894 1.39874C7.86778 0.929896 8.50367 0.666504 9.16671 0.666504ZM9.16671 2.33317C8.94569 2.33317 8.73373 2.42097 8.57745 2.57725C8.42117 2.73353 8.33337 2.94549 8.33337 3.1665C8.33337 3.38752 8.42117 3.59948 8.57745 3.75576C8.73373 3.91204 8.94569 3.99984 9.16671 3.99984C9.38772 3.99984 9.59968 3.91204 9.75596 3.75576C9.91224 3.59948 10 3.38752 10 3.1665C10 2.94549 9.91224 2.73353 9.75596 2.57725C9.59968 2.42097 9.38772 2.33317 9.16671 2.33317Z" fill="#16113D"/>
</svg>
