<svg width="18" height="15" viewBox="0 0 18 15" fill="none" xmlns="http://www.w3.org/2000/svg">
<path d="M13.7247 5.39988H9.44966V6.97488C9.44966 8.09144 8.54123 8.99988 7.42466 8.99988C6.3081 8.99988 5.39966 8.09144 5.39966 6.97488V3.55488L3.57435 4.65175C3.03154 4.97519 2.69966 5.563 2.69966 6.193V7.52332L0.449665 8.82269C0.0193524 9.07019 -0.12971 9.62144 0.120602 10.0518L2.3706 13.9499C2.6181 14.3802 3.16935 14.5264 3.59966 14.2789L6.50779 12.5999H10.3497C11.3425 12.5999 12.1497 11.7927 12.1497 10.7999H12.5997C13.0975 10.7999 13.4997 10.3977 13.4997 9.89988V8.09988H13.7247C14.0987 8.09988 14.3997 7.79894 14.3997 7.42488V6.07488C14.3997 5.70082 14.0987 5.39988 13.7247 5.39988ZM17.8787 4.348L15.6287 0.44988C15.3812 0.0195674 14.83 -0.126683 14.3997 0.120817L11.4915 1.79988H8.61716C8.27966 1.79988 7.9506 1.8955 7.66373 2.07269L6.72154 2.6605C6.45716 2.82363 6.29966 3.11332 6.29966 3.42269V6.97488C6.29966 7.59644 6.8031 8.09988 7.42466 8.09988C8.04623 8.09988 8.54966 7.59644 8.54966 6.97488V4.49988H13.7247C14.5937 4.49988 15.2997 5.20582 15.2997 6.07488V6.87644L17.5497 5.57707C17.98 5.32675 18.1262 4.77832 17.8787 4.348Z" fill="#16113D"/>
</svg>
