<svg width="20" height="20" viewBox="0 0 20 20" fill="none" xmlns="http://www.w3.org/2000/svg">
<path d="M16.615 6.66691H17.5C17.942 6.66691 18.3659 6.8425 18.6785 7.15507C18.9911 7.46763 19.1666 7.89155 19.1666 8.33358V11.6669C19.1666 12.1089 18.9911 12.5329 18.6785 12.8454C18.3659 13.158 17.942 13.3336 17.5 13.3336H16.615C16.4118 14.9447 15.6277 16.4262 14.4098 17.5002C13.1918 18.5743 11.6238 19.1669 9.99998 19.1669V17.5002C11.3261 17.5002 12.5978 16.9735 13.5355 16.0358C14.4732 15.0981 15 13.8263 15 12.5002V7.50024C15 6.17416 14.4732 4.90239 13.5355 3.96471C12.5978 3.02703 11.3261 2.50024 9.99998 2.50024C8.6739 2.50024 7.40213 3.02703 6.46445 3.96471C5.52676 4.90239 4.99998 6.17416 4.99998 7.50024V13.3336H2.49998C2.05795 13.3336 1.63403 13.158 1.32147 12.8454C1.00891 12.5329 0.833313 12.1089 0.833313 11.6669V8.33358C0.833313 7.89155 1.00891 7.46763 1.32147 7.15507C1.63403 6.8425 2.05795 6.66691 2.49998 6.66691H3.38498C3.58834 5.05599 4.37255 3.57464 5.59046 2.50081C6.80837 1.42697 8.37627 0.834473 9.99998 0.834473C11.6237 0.834473 13.1916 1.42697 14.4095 2.50081C15.6274 3.57464 16.4116 5.05599 16.615 6.66691ZM2.49998 8.33358V11.6669H3.33331V8.33358H2.49998ZM16.6666 8.33358V11.6669H17.5V8.33358H16.6666ZM6.46665 13.1544L7.34998 11.7411C8.14421 12.2386 9.06279 12.5018 9.99998 12.5002C10.9372 12.5018 11.8558 12.2386 12.65 11.7411L13.5333 13.1544C12.4744 13.8179 11.2496 14.1688 9.99998 14.1669C8.75036 14.1688 7.5256 13.8179 6.46665 13.1544Z" fill="#16113D"/>
</svg>
