<svg width="18" height="18" viewBox="0 0 18 18" fill="none" xmlns="http://www.w3.org/2000/svg">
<path d="M9 17.3332C4.39751 17.3332 0.666672 13.6023 0.666672 8.99984C0.666672 4.39734 4.39751 0.666504 9 0.666504C13.6025 0.666504 17.3333 4.39734 17.3333 8.99984C17.3333 13.6023 13.6025 17.3332 9 17.3332ZM9 15.6665C10.7681 15.6665 12.4638 14.9641 13.7141 13.7139C14.9643 12.4636 15.6667 10.7679 15.6667 8.99984C15.6667 7.23173 14.9643 5.53603 13.7141 4.28579C12.4638 3.03555 10.7681 2.33317 9 2.33317C7.23189 2.33317 5.5362 3.03555 4.28596 4.28579C3.03572 5.53603 2.33334 7.23173 2.33334 8.99984C2.33334 10.7679 3.03572 12.4636 4.28596 13.7139C5.5362 14.9641 7.23189 15.6665 9 15.6665ZM9 13.9998V3.99984C10.3261 3.99984 11.5979 4.52662 12.5355 5.4643C13.4732 6.40199 14 7.67375 14 8.99984C14 10.3259 13.4732 11.5977 12.5355 12.5354C11.5979 13.4731 10.3261 13.9998 9 13.9998Z" fill="#16113D"/>
</svg>
