<svg width="18" height="18" viewBox="0 0 18 18" fill="none" xmlns="http://www.w3.org/2000/svg">
<path d="M8.99996 17.3332C4.39746 17.3332 0.666626 13.6023 0.666626 8.99984C0.666626 4.39734 4.39746 0.666504 8.99996 0.666504C13.6025 0.666504 17.3333 4.39734 17.3333 8.99984C17.3333 13.6023 13.6025 17.3332 8.99996 17.3332ZM8.99996 15.6665C10.7681 15.6665 12.4638 14.9641 13.714 13.7139C14.9642 12.4636 15.6666 10.7679 15.6666 8.99984C15.6666 7.23173 14.9642 5.53603 13.714 4.28579C12.4638 3.03555 10.7681 2.33317 8.99996 2.33317C7.23185 2.33317 5.53616 3.03555 4.28591 4.28579C3.03567 5.53603 2.33329 7.23173 2.33329 8.99984C2.33329 10.7679 3.03567 12.4636 4.28591 13.7139C5.53616 14.9641 7.23185 15.6665 8.99996 15.6665ZM4.83329 9.83317H12.3333V11.4998H8.99996V13.9998L4.83329 9.83317ZM8.99996 6.49984V3.99984L13.1666 8.1665H5.66663V6.49984H8.99996Z" fill="#16113D"/>
</svg>
