<svg width="36" height="36" viewBox="0 0 36 36" fill="none" xmlns="http://www.w3.org/2000/svg">
<circle cx="18" cy="18" r="18" fill="#8F92A5" fill-opacity="0.1"/>
<circle cx="18" cy="18" r="14" fill="#8F92A5" fill-opacity="0.3"/>
<circle cx="18" cy="18" r="10" fill="#8F92A5"/>
<path d="M19.5 13C19.8511 13 20.1961 13.0924 20.5002 13.2679C20.8043 13.4435 21.0568 13.696 21.2324 14.0001C21.4079 14.3043 21.5003 14.6492 21.5002 15.0004C21.5002 15.3515 21.4077 15.6965 21.232 16.0005L23.5 16V17H22.5V22C22.5 22.1326 22.4473 22.2598 22.3536 22.3536C22.2598 22.4473 22.1326 22.5 22 22.5H14C13.8674 22.5 13.7402 22.4473 13.6464 22.3536C13.5527 22.2598 13.5 22.1326 13.5 22V17H12.5V16L14.768 16.0005C14.5199 15.5709 14.4403 15.0645 14.5447 14.5796C14.649 14.0946 14.9299 13.6658 15.3327 13.3763C15.7355 13.0868 16.2315 12.9573 16.7244 13.0129C17.2173 13.0686 17.6719 13.3055 18 13.6775C18.1873 13.4642 18.418 13.2934 18.6767 13.1765C18.9354 13.0597 19.2161 12.9995 19.5 13ZM17.5 17H14.5V21.5H17.5V17ZM21.5 17H18.5V21.5H21.5V17ZM16.5 14C16.2405 13.9988 15.9907 14.0986 15.8034 14.2782C15.6161 14.4578 15.506 14.7032 15.4962 14.9625C15.4865 15.2218 15.5779 15.4747 15.7512 15.6679C15.9246 15.861 16.1662 15.9792 16.425 15.9975L16.5 16H17.5V15C17.5 14.761 17.4144 14.53 17.2588 14.3486C17.1031 14.1673 16.8877 14.0477 16.6515 14.0115L16.5745 14.0025L16.5 14ZM19.5 14C19.2477 13.9999 19.0047 14.0952 18.8197 14.2668C18.6347 14.4383 18.5214 14.6734 18.5025 14.925L18.5 15V16H19.5C19.7523 16.0001 19.9953 15.9048 20.1803 15.7333C20.3653 15.5617 20.4786 15.3266 20.4975 15.075L20.5 15C20.5 14.7348 20.3946 14.4804 20.2071 14.2929C20.0196 14.1054 19.7652 14 19.5 14Z" fill="white"/>
</svg>
