<svg width="36" height="36" viewBox="0 0 36 36" fill="none" xmlns="http://www.w3.org/2000/svg">
<circle cx="18" cy="18" r="18" fill="#EF8566" fill-opacity="0.1"/>
<circle cx="18" cy="18" r="14" fill="#EF8566" fill-opacity="0.3"/>
<circle cx="18" cy="18" r="10" fill="#EF8566"/>
<g clip-path="url(#clip0_418_18444)">
<path d="M22.5 16V22.4965C22.5005 22.5622 22.488 22.6273 22.4633 22.6881C22.4386 22.749 22.4021 22.8043 22.356 22.8511C22.3099 22.8978 22.2551 22.9351 22.1946 22.9606C22.1341 22.9862 22.0692 22.9995 22.0035 23H13.9965C13.8649 23 13.7387 22.9478 13.6456 22.8548C13.5525 22.7618 13.5001 22.6356 13.5 22.504V13.496C13.5 13.2275 13.7245 13 14.001 13H19.4985L22.5 16ZM21.5 16.5H19V14H14.5V22H21.5V16.5ZM16 15.5H17.5V16.5H16V15.5ZM16 17.5H20V18.5H16V17.5ZM16 19.5H20V20.5H16V19.5Z" fill="white"/>
</g>
<defs>
<clipPath id="clip0_418_18444">
<rect width="12" height="12" fill="white" transform="translate(12 12)"/>
</clipPath>
</defs>
</svg>
